<?xml version="1.0" encoding="iso-8859-1"?>
<!-- Generator: Adobe Illustrator 19.0.0, SVG Export Plug-In . SVG Version: 6.00 Build 0)  -->
<svg xmlns="http://www.w3.org/2000/svg" xmlns:xlink="http://www.w3.org/1999/xlink" version="1.1" id="Capa_1" x="0px" y="0px" viewBox="0 0 511.997 511.997" style="enable-background:new 0 0 511.997 511.997;" xml:space="preserve" width="512px" height="512px">
<g>
	<g>
		<path d="M56.241,191.997h-0.086c-2.203,0-3.953,1.789-3.953,4s1.828,4,4.039,4c2.203,0,4-1.789,4-4S58.444,191.997,56.241,191.997    z" fill="#FFFFFF"/>
	</g>
</g>
<g>
	<g>
		<path d="M56.241,223.997h-0.086c-2.203,0-3.953,1.789-3.953,4s1.828,4,4.039,4c2.203,0,4-1.789,4-4S58.444,223.997,56.241,223.997    z" fill="#FFFFFF"/>
	</g>
</g>
<g>
	<g>
		<path d="M112.241,223.997h-0.086c-2.203,0-3.953,1.789-3.953,4s1.828,4,4.039,4c2.203,0,4-1.789,4-4    S114.444,223.997,112.241,223.997z" fill="#FFFFFF"/>
	</g>
</g>
<g>
	<g>
		<path d="M47.999,239.997c-2.211,0-4,1.789-4,4v240c0,2.211,1.789,4,4,4s4-1.789,4-4v-240    C51.999,241.786,50.21,239.997,47.999,239.997z" fill="#FFFFFF"/>
	</g>
</g>
<g>
	<g>
		<path d="M471.999,239.997c-2.211,0-4,1.789-4,4v240c0,2.211,1.789,4,4,4s4-1.789,4-4v-240    C475.999,241.786,474.21,239.997,471.999,239.997z" fill="#FFFFFF"/>
	</g>
</g>
<g>
	<g>
		<path d="M471.999,199.997h-336c-2.211,0-4,1.789-4,4s1.789,4,4,4h336c2.211,0,4-1.789,4-4S474.21,199.997,471.999,199.997z" fill="#FFFFFF"/>
	</g>
</g>
<g>
	<g>
		<path d="M71.999,503.997c-11.031,0-20-8.977-20-20c0-2.211-1.789-4-4-4s-4,1.789-4,4c0,15.438,12.562,28,28,28    c2.211,0,4-1.789,4-4S74.21,503.997,71.999,503.997z" fill="#FFFFFF"/>
	</g>
</g>
<g>
	<g>
		<path d="M471.999,479.997c-2.211,0-4,1.789-4,4c0,11.023-8.969,20-20,20c-2.211,0-4,1.789-4,4s1.789,4,4,4    c15.438,0,28-12.562,28-28C475.999,481.786,474.21,479.997,471.999,479.997z" fill="#FFFFFF"/>
	</g>
</g>
<g>
	<g>
		<path d="M447.999,503.997h-376c-2.211,0-4,1.789-4,4s1.789,4,4,4h376c2.211,0,4-1.789,4-4S450.21,503.997,447.999,503.997z" fill="#FFFFFF"/>
	</g>
</g>
<g>
	<g>
		<path d="M471.999,239.997h-424c-2.211,0-4,1.789-4,4s1.789,4,4,4h424c2.211,0,4-1.789,4-4S474.21,239.997,471.999,239.997z" fill="#FFFFFF"/>
	</g>
</g>
<g>
	<g>
		<path d="M471.999,199.997c-2.211,0-4,1.789-4,4v32c0,2.211,1.789,4,4,4s4-1.789,4-4v-32    C475.999,201.786,474.21,199.997,471.999,199.997z" fill="#FFFFFF"/>
	</g>
</g>
<g>
	<g>
		<path d="M47.999,239.997h-8c-2.211,0-4,1.789-4,4s1.789,4,4,4h8c2.211,0,4-1.789,4-4S50.21,239.997,47.999,239.997z" fill="#FFFFFF"/>
	</g>
</g>
<g>
	<g>
		<path d="M39.999,175.997c-2.211,0-4,1.789-4,4v64c0,2.211,1.789,4,4,4s4-1.789,4-4v-64    C43.999,177.786,42.21,175.997,39.999,175.997z" fill="#FFFFFF"/>
	</g>
</g>
<g>
	<g>
		<path d="M95.999,175.997h-56c-2.211,0-4,1.789-4,4s1.789,4,4,4h56c2.211,0,4-1.789,4-4S98.21,175.997,95.999,175.997z" fill="#FFFFFF"/>
	</g>
</g>
<g>
	<g>
		<path d="M154.827,233.169l-56-56c-1.562-1.562-4.094-1.562-5.656,0s-1.562,4.094,0,5.656l56,56    c0.781,0.781,1.805,1.172,2.828,1.172s2.047-0.391,2.828-1.172C156.389,237.263,156.389,234.731,154.827,233.169z" fill="#FFFFFF"/>
	</g>
</g>
<g>
	<g>
		<path d="M458.827,209.169c-1.562-1.562-4.094-1.562-5.656,0l-24,24c-1.562,1.562-1.562,4.094,0,5.656    c0.781,0.781,1.805,1.172,2.828,1.172s2.047-0.391,2.828-1.172l24-24C460.389,213.263,460.389,210.731,458.827,209.169z" fill="#FFFFFF"/>
	</g>
</g>
<g>
	<g>
		<path d="M426.827,209.169c-1.562-1.562-4.094-1.562-5.656,0l-24,24c-1.562,1.562-1.562,4.094,0,5.656    c0.781,0.781,1.805,1.172,2.828,1.172s2.047-0.391,2.828-1.172l24-24C428.389,213.263,428.389,210.731,426.827,209.169z" fill="#FFFFFF"/>
	</g>
</g>
<g>
	<g>
		<path d="M402.827,209.169c-1.562-1.562-4.094-1.562-5.656,0l-24,24c-1.562,1.562-1.562,4.094,0,5.656    c0.781,0.781,1.805,1.172,2.828,1.172s2.047-0.391,2.828-1.172l24-24C404.389,213.263,404.389,210.731,402.827,209.169z" fill="#FFFFFF"/>
	</g>
</g>
<g>
	<g>
		<path d="M370.827,209.169c-1.562-1.562-4.094-1.562-5.656,0l-24,24c-1.562,1.562-1.562,4.094,0,5.656    c0.781,0.781,1.805,1.172,2.828,1.172s2.047-0.391,2.828-1.172l24-24C372.389,213.263,372.389,210.731,370.827,209.169z" fill="#FFFFFF"/>
	</g>
</g>
<g>
	<g>
		<path d="M346.827,209.169c-1.562-1.562-4.094-1.562-5.656,0l-24,24c-1.562,1.562-1.562,4.094,0,5.656    c0.781,0.781,1.805,1.172,2.828,1.172s2.047-0.391,2.828-1.172l24-24C348.389,213.263,348.389,210.731,346.827,209.169z" fill="#FFFFFF"/>
	</g>
</g>
<g>
	<g>
		<path d="M314.827,209.169c-1.562-1.562-4.094-1.562-5.656,0l-24,24c-1.562,1.562-1.562,4.094,0,5.656    c0.781,0.781,1.805,1.172,2.828,1.172s2.047-0.391,2.828-1.172l24-24C316.389,213.263,316.389,210.731,314.827,209.169z" fill="#FFFFFF"/>
	</g>
</g>
<g>
	<g>
		<path d="M290.827,209.169c-1.562-1.562-4.094-1.562-5.656,0l-24,24c-1.562,1.562-1.562,4.094,0,5.656    c0.781,0.781,1.805,1.172,2.828,1.172s2.047-0.391,2.828-1.172l24-24C292.389,213.263,292.389,210.731,290.827,209.169z" fill="#FFFFFF"/>
	</g>
</g>
<g>
	<g>
		<path d="M258.827,209.169c-1.562-1.562-4.094-1.562-5.656,0l-24,24c-1.562,1.562-1.562,4.094,0,5.656    c0.781,0.781,1.805,1.172,2.828,1.172s2.047-0.391,2.828-1.172l24-24C260.389,213.263,260.389,210.731,258.827,209.169z" fill="#FFFFFF"/>
	</g>
</g>
<g>
	<g>
		<path d="M234.827,209.169c-1.562-1.562-4.094-1.562-5.656,0l-24,24c-1.562,1.562-1.562,4.094,0,5.656    c0.781,0.781,1.805,1.172,2.828,1.172s2.047-0.391,2.828-1.172l24-24C236.389,213.263,236.389,210.731,234.827,209.169z" fill="#FFFFFF"/>
	</g>
</g>
<g>
	<g>
		<path d="M202.827,209.169c-1.562-1.562-4.094-1.562-5.656,0l-24,24c-1.562,1.562-1.562,4.094,0,5.656    c0.781,0.781,1.805,1.172,2.828,1.172s2.047-0.391,2.828-1.172l24-24C204.389,213.263,204.389,210.731,202.827,209.169z" fill="#FFFFFF"/>
	</g>
</g>
<g>
	<g>
		<path d="M450.624,39.42L435.312,2.467c-0.852-2.047-3.211-3-5.227-2.164L45.022,159.832c-2.039,0.844-3.008,3.184-2.164,5.227    c0.852,2.039,3.18,3.023,5.227,2.164l381.367-158l12.25,29.562L114.952,174.16c-2.039,0.844-3.008,3.184-2.164,5.227    c0.64,1.539,2.125,2.469,3.695,2.469c0.508,0,1.032-0.097,1.532-0.304L448.46,44.645c0.976-0.406,1.758-1.184,2.164-2.164    C451.03,41.501,451.03,40.4,450.624,39.42z" fill="#FFFFFF"/>
	</g>
</g>
<g>
	<g>
		<path d="M421.429,13.809c-2.032-0.832-4.375,0.121-5.227,2.164l-13,31.359c-0.844,2.039,0.125,4.379,2.164,5.227    c0.5,0.207,1.015,0.305,1.531,0.305c1.571,0,3.055-0.929,3.696-2.469l13-31.359C424.437,16.998,423.468,14.658,421.429,13.809z" fill="#FFFFFF"/>
	</g>
</g>
<g>
	<g>
		<path d="M391.852,26.059c-2.047-0.844-4.375,0.129-5.227,2.164l-12.977,31.352c-0.844,2.043,0.125,4.383,2.164,5.227    c0.5,0.207,1.023,0.305,1.531,0.305c1.57,0,3.054-0.929,3.695-2.468l12.978-31.353C394.86,29.243,393.891,26.903,391.852,26.059z" fill="#FFFFFF"/>
	</g>
</g>
<g>
	<g>
		<path d="M369.687,35.246c-2.024-0.84-4.375,0.121-5.227,2.164l-12.992,31.352c-0.844,2.039,0.125,4.379,2.164,5.227    c0.5,0.207,1.015,0.305,1.531,0.305c1.57,0,3.055-0.93,3.696-2.469l12.992-31.352C372.695,38.434,371.726,36.095,369.687,35.246z" fill="#FFFFFF"/>
	</g>
</g>
<g>
	<g>
		<path d="M340.117,47.496c-2.039-0.844-4.383,0.129-5.227,2.164l-12.984,31.352c-0.844,2.043,0.125,4.383,2.164,5.227    c0.5,0.207,1.023,0.305,1.531,0.305c1.57,0,3.054-0.93,3.696-2.469l12.984-31.352C343.125,50.681,342.156,48.34,340.117,47.496z" fill="#FFFFFF"/>
	</g>
</g>
<g>
	<g>
		<path d="M317.953,56.676c-2.032-0.844-4.375,0.121-5.227,2.164L299.734,90.2c-0.844,2.043,0.125,4.383,2.164,5.227    c0.5,0.207,1.015,0.305,1.531,0.305c1.57,0,3.054-0.929,3.696-2.469l12.992-31.359C320.961,59.861,319.992,57.52,317.953,56.676z" fill="#FFFFFF"/>
	</g>
</g>
<g>
	<g>
		<path d="M288.375,68.926c-2.047-0.836-4.375,0.129-5.227,2.164l-12.977,31.359c-0.844,2.043,0.125,4.383,2.164,5.227    c0.5,0.207,1.023,0.305,1.531,0.305c1.571,0,3.055-0.929,3.696-2.469l12.977-31.359C291.383,72.111,290.414,69.77,288.375,68.926z    " fill="#FFFFFF"/>
	</g>
</g>
<g>
	<g>
		<path d="M266.218,78.114c-2.016-0.836-4.375,0.117-5.227,2.164l-12.992,31.359c-0.844,2.043,0.125,4.383,2.164,5.227    c0.5,0.207,1.015,0.305,1.531,0.305c1.571,0,3.055-0.93,3.696-2.469l12.992-31.359C269.226,81.299,268.257,78.959,266.218,78.114z    " fill="#FFFFFF"/>
	</g>
</g>
<g>
	<g>
		<path d="M236.656,90.365c-2.024-0.84-4.375,0.121-5.227,2.164l-13,31.359c-0.844,2.039,0.125,4.379,2.164,5.227    c0.5,0.207,1.015,0.305,1.531,0.305c1.57,0,3.055-0.93,3.696-2.469l13-31.359C239.664,93.553,238.695,91.213,236.656,90.365z" fill="#FFFFFF"/>
	</g>
</g>
<g>
	<g>
		<path d="M214.476,99.545c-2.047-0.844-4.375,0.129-5.227,2.164l-12.984,31.359c-0.844,2.043,0.125,4.383,2.164,5.227    c0.5,0.207,1.023,0.305,1.531,0.305c1.57,0,3.055-0.93,3.696-2.469l12.984-31.359C217.484,102.728,216.515,100.389,214.476,99.545    z" fill="#FFFFFF"/>
	</g>
</g>
<g>
	<g>
		<path d="M184.921,111.793c-2.024-0.84-4.375,0.121-5.227,2.164l-12.992,31.352c-0.844,2.039,0.125,4.379,2.164,5.227    c0.5,0.207,1.015,0.305,1.531,0.305c1.571,0,3.055-0.93,3.696-2.469l12.992-31.352    C187.929,114.982,186.96,112.642,184.921,111.793z" fill="#FFFFFF"/>
	</g>
</g>
<g>
	<g>
		<path d="M439.999,287.997h-368c-2.211,0-4,1.789-4,4s1.789,4,4,4h368c2.211,0,4-1.789,4-4S442.21,287.997,439.999,287.997z" fill="#FFFFFF"/>
	</g>
</g>
<g>
	<g>
		<path d="M439.999,367.997h-368c-2.211,0-4,1.789-4,4s1.789,4,4,4h368c2.211,0,4-1.789,4-4S442.21,367.997,439.999,367.997z" fill="#FFFFFF"/>
	</g>
</g>
<g>
	<g>
		<path d="M439.999,447.997h-368c-2.211,0-4,1.789-4,4s1.789,4,4,4h368c2.211,0,4-1.789,4-4S442.21,447.997,439.999,447.997z" fill="#FFFFFF"/>
	</g>
</g>
<g>
	<g>
		<path d="M143.999,303.997c-2.211,0-4,1.789-4,4v48c0,2.211,1.789,4,4,4s4-1.789,4-4v-48    C147.999,305.786,146.21,303.997,143.999,303.997z" fill="#FFFFFF"/>
	</g>
</g>
<g>
	<g>
		<path d="M215.999,303.997c-2.211,0-4,1.789-4,4v48c0,2.211,1.789,4,4,4s4-1.789,4-4v-48    C219.999,305.786,218.21,303.997,215.999,303.997z" fill="#FFFFFF"/>
	</g>
</g>
<g>
	<g>
		<path d="M287.999,303.997c-2.211,0-4,1.789-4,4v48c0,2.211,1.789,4,4,4s4-1.789,4-4v-48    C291.999,305.786,290.21,303.997,287.999,303.997z" fill="#FFFFFF"/>
	</g>
</g>
<g>
	<g>
		<path d="M359.999,303.997c-2.211,0-4,1.789-4,4v48c0,2.211,1.789,4,4,4s4-1.789,4-4v-48    C363.999,305.786,362.21,303.997,359.999,303.997z" fill="#FFFFFF"/>
	</g>
</g>
<g>
	<g>
		<path d="M143.999,271.997h-72c-2.211,0-4,1.789-4,4s1.789,4,4,4h72c2.211,0,4-1.789,4-4S146.21,271.997,143.999,271.997z" fill="#FFFFFF"/>
	</g>
</g>
<g>
	<g>
		<path d="M135.999,431.997h-64c-2.211,0-4,1.789-4,4s1.789,4,4,4h64c2.211,0,4-1.789,4-4S138.21,431.997,135.999,431.997z" fill="#FFFFFF"/>
	</g>
</g>
<g>
	<g>
		<path d="M383.999,431.997h-72c-2.211,0-4,1.789-4,4s1.789,4,4,4h72c2.211,0,4-1.789,4-4S386.21,431.997,383.999,431.997z" fill="#FFFFFF"/>
	</g>
</g>
<g>
	<g>
		<path d="M103.999,463.997h-32c-2.211,0-4,1.789-4,4s1.789,4,4,4h32c2.211,0,4-1.789,4-4S106.21,463.997,103.999,463.997z" fill="#FFFFFF"/>
	</g>
</g>
<g>
	<g>
		<path d="M119.999,351.997h-24c-2.211,0-4,1.789-4,4s1.789,4,4,4h24c2.211,0,4-1.789,4-4S122.21,351.997,119.999,351.997z" fill="#FFFFFF"/>
	</g>
</g>
<g>
	<g>
		<path d="M191.999,351.997h-24c-2.211,0-4,1.789-4,4s1.789,4,4,4h24c2.211,0,4-1.789,4-4S194.21,351.997,191.999,351.997z" fill="#FFFFFF"/>
	</g>
</g>
<g>
	<g>
		<path d="M263.999,351.997h-24c-2.211,0-4,1.789-4,4s1.789,4,4,4h24c2.211,0,4-1.789,4-4S266.21,351.997,263.999,351.997z" fill="#FFFFFF"/>
	</g>
</g>
<g>
	<g>
		<path d="M335.999,351.997h-24c-2.211,0-4,1.789-4,4s1.789,4,4,4h24c2.211,0,4-1.789,4-4S338.21,351.997,335.999,351.997z" fill="#FFFFFF"/>
	</g>
</g>
<g>
	<g>
		<path d="M407.999,351.997h-24c-2.211,0-4,1.789-4,4s1.789,4,4,4h24c2.211,0,4-1.789,4-4S410.21,351.997,407.999,351.997z" fill="#FFFFFF"/>
	</g>
</g>
<g>
</g>
<g>
</g>
<g>
</g>
<g>
</g>
<g>
</g>
<g>
</g>
<g>
</g>
<g>
</g>
<g>
</g>
<g>
</g>
<g>
</g>
<g>
</g>
<g>
</g>
<g>
</g>
<g>
</g>
</svg>
