<?xml version="1.0" encoding="iso-8859-1"?>
<!-- Generator: Adobe Illustrator 19.0.0, SVG Export Plug-In . SVG Version: 6.00 Build 0)  -->
<svg xmlns="http://www.w3.org/2000/svg" xmlns:xlink="http://www.w3.org/1999/xlink" version="1.1" id="Capa_1" x="0px" y="0px" viewBox="0 0 511.93 511.93" style="enable-background:new 0 0 511.93 511.93;" xml:space="preserve" width="512px" height="512px">
<g>
	<g>
		<path d="M443.942,315.955c-2.211,0-4,1.789-4,3.999c0,101.449-82.537,183.977-183.976,183.977c-2.211,0-4,1.788-4,3.999    s1.789,4,4,4c105.854,0,191.975-86.122,191.974-191.976C447.94,317.744,446.151,315.955,443.942,315.955z" fill="#FFFFFF"/>
	</g>
</g>
<g>
	<g>
		<path d="M255.966,503.931c-101.445,0-183.977-82.529-183.977-183.977c0-2.21-1.789-3.999-3.999-3.999c-2.211,0-4,1.789-4,3.999    c0,105.854,86.122,191.976,191.976,191.976c2.211,0,4-1.789,4-4S258.176,503.931,255.966,503.931z" fill="#FFFFFF"/>
	</g>
</g>
<g>
	<g>
		<path d="M342.766,81.141c-1.555-1.531-4.053-1.547-5.623-0.004c-1.359,1.344-33.762,32.653-58.414,8.019    c-25.709-25.731-7.157-83.329-6.969-83.911c0.516-1.558,0.024-3.273-1.234-4.323c-1.265-1.051-3.046-1.215-4.484-0.434    C264.021,1.597,63.991,113.657,63.991,319.954c0,2.211,1.789,4,4,4c2.21,0,3.999-1.789,3.999-4    c0-177.297,151.68-283.65,189.465-307.381c-4.496,18.794-10.862,59.738,11.619,82.239c22.59,22.571,51.914,7.713,66.717-5.226    c16.131,17.201,100.152,112.509,100.152,230.368c0,2.211,1.789,4,4,4c2.209,0,3.998-1.789,3.997-4.001    C447.94,186.85,343.821,82.184,342.766,81.141z" fill="#FFFFFF"/>
	</g>
</g>
<g>
	<g>
		<path d="M254.622,144.985c-23.708-21.056-22.669-52.513-22.657-52.825c0.059-1.414-0.632-2.757-1.816-3.527    c-1.195-0.769-2.695-0.855-3.956-0.23c-1.859,0.922-45.771,23.372-66.042,90.414c-0.641,2.113,0.554,4.343,2.671,4.983    c0.383,0.117,0.773,0.172,1.156,0.172c1.719,0,3.304-1.113,3.827-2.842c15.041-49.737,44.233-73.905,56.407-82.162    c0.993,11.529,5.499,34.593,25.099,52.001c1.647,1.456,4.17,1.316,5.647-0.336C256.423,148.981,256.274,146.453,254.622,144.985z" fill="#FFFFFF"/>
	</g>
</g>
<g>
	<g>
		<path d="M338.222,233.926h-0.078c-2.219,0-3.969,1.789-3.969,3.999c0,2.211,1.836,4,4.047,4c2.201,0,3.998-1.788,3.998-4    C342.22,235.715,340.423,233.926,338.222,233.926z" fill="#FFFFFF"/>
	</g>
</g>
<g>
	<g>
		<path d="M174.183,397.96h-0.078c-2.21,0-3.96,1.789-3.96,3.999c0,2.211,1.832,4,4.039,4c2.21,0,3.999-1.789,3.999-4    C178.183,399.749,176.393,397.96,174.183,397.96z" fill="#FFFFFF"/>
	</g>
</g>
<g>
	<g>
		<path d="M286.212,203.915h-0.078c-2.203,0-3.953,1.789-3.953,3.999c0,2.211,1.828,4,4.031,4c2.219,0,4-1.789,4-4    C290.212,205.704,288.431,203.915,286.212,203.915z" fill="#FFFFFF"/>
	</g>
</g>
<g>
	<g>
		<path d="M226.177,427.98h-0.078c-2.211,0-3.961,1.789-3.961,3.999c0,2.211,1.832,4,4.039,4c2.211,0,3.999-1.789,3.999-4    C230.176,429.769,228.387,427.98,226.177,427.98z" fill="#FFFFFF"/>
	</g>
</g>
<g>
	<g>
		<path d="M226.177,203.907h-0.078c-2.211,0-3.961,1.789-3.961,3.999c0,2.211,1.832,4,4.039,4c2.211,0,3.999-1.789,3.999-4    C230.176,205.696,228.387,203.907,226.177,203.907z" fill="#FFFFFF"/>
	</g>
</g>
<g>
	<g>
		<path d="M286.212,427.972h-0.078c-2.203,0-3.953,1.789-3.953,3.999c0,2.211,1.828,4,4.031,4c2.219,0,4-1.789,4-4    C290.212,429.761,288.431,427.972,286.212,427.972z" fill="#FFFFFF"/>
	</g>
</g>
<g>
	<g>
		<path d="M174.183,233.934h-0.078c-2.21,0-3.96,1.789-3.96,3.999c0,2.211,1.832,4,4.039,4c2.21,0,3.999-1.788,3.999-4    C178.183,235.723,176.393,233.934,174.183,233.934z" fill="#FFFFFF"/>
	</g>
</g>
<g>
	<g>
		<path d="M338.206,397.952h-0.078c-2.203,0-3.953,1.789-3.953,3.999c0,2.211,1.828,4,4.031,4c2.217,0,3.998-1.789,3.998-4    C342.204,399.741,340.423,397.952,338.206,397.952z" fill="#FFFFFF"/>
	</g>
</g>
<g>
	<g>
		<path d="M144.163,285.92h-0.078c-2.21,0-3.96,1.789-3.96,3.999c0,2.211,1.832,4,4.039,4c2.211,0,4-1.789,3.999-4    C148.163,287.709,146.373,285.92,144.163,285.92z" fill="#FFFFFF"/>
	</g>
</g>
<g>
	<g>
		<path d="M368.234,345.959h-0.078c-2.219,0-3.969,1.789-3.969,3.999c0,2.211,1.836,4,4.047,4c2.201,0,3.998-1.789,3.998-4    C372.232,347.748,370.435,345.959,368.234,345.959z" fill="#FFFFFF"/>
	</g>
</g>
<g>
	<g>
		<path d="M256.213,315.932h-0.078c-2.211,0-3.961,1.789-3.961,3.999c0,2.211,1.832,4,4.039,4c2.21,0,3.999-1.789,4-4    C260.213,317.721,258.423,315.932,256.213,315.932z" fill="#FFFFFF"/>
	</g>
</g>
<g>
	<g>
		<path d="M144.163,345.967h-0.078c-2.21,0-3.96,1.789-3.96,3.999c0,2.211,1.832,4,4.039,4c2.211,0,4-1.789,3.999-4    C148.163,347.756,146.373,345.967,144.163,345.967z" fill="#FFFFFF"/>
	</g>
</g>
<g>
	<g>
		<path d="M368.218,285.92h-0.078c-2.203,0-3.953,1.789-3.953,3.999c0,2.211,1.828,4,4.031,4c2.217,0,3.998-1.789,3.998-4    C372.216,287.709,370.435,285.92,368.218,285.92z" fill="#FFFFFF"/>
	</g>
</g>
<g>
	<g>
		<path d="M363.444,212.46c-28.707-28.704-66.867-44.51-107.462-44.51c-40.6,0-78.771,15.81-107.486,44.525    c-28.699,28.696-44.506,66.859-44.506,107.455c-0.004,40.605,15.803,78.78,44.506,107.479    c28.703,28.707,66.87,44.518,107.463,44.518c40.595,0,78.763-15.811,107.47-44.518c28.715-28.715,44.533-66.882,44.533-107.471    C407.962,279.342,392.151,241.171,363.444,212.46z M357.773,421.754c-27.191,27.192-63.35,42.174-101.814,42.174    c-38.456,0-74.612-14.983-101.808-42.174c-27.191-27.192-42.166-63.351-42.162-101.823c0-38.464,14.974-74.615,42.162-101.799    c27.204-27.203,63.367-42.182,101.831-42.182c38.464,0,74.615,14.974,101.806,42.167c27.199,27.199,42.174,63.358,42.174,101.814    S384.98,394.554,357.773,421.754z" fill="#FFFFFF"/>
	</g>
</g>
<g>
	<g>
		<path d="M352.126,223.779c-25.686-25.68-59.836-39.823-96.156-39.823c-36.328,0-70.48,14.147-96.164,39.831    c-25.672,25.673-39.811,59.821-39.811,96.144c0.004,36.323,14.147,70.475,39.827,96.151c25.68,25.685,59.828,39.831,96.152,39.831    c36.324,0,70.467-14.138,96.144-39.816C405.134,363.074,405.134,276.796,352.126,223.779z M346.461,410.441    c-24.168,24.161-56.297,37.472-90.488,37.472c-34.187,0-66.328-13.31-90.496-37.487c-24.169-24.169-37.479-56.305-37.483-90.496    c0-34.19,13.307-66.327,37.468-90.488c24.176-24.172,56.317-37.487,90.508-37.487c34.187,0,66.332,13.311,90.499,37.478    C396.361,279.334,396.361,360.534,346.461,410.441z" fill="#FFFFFF"/>
	</g>
</g>
<g>
	<g>
		<path d="M267.292,308.621c-6.045-6.054-16.587-6.038-22.629,0c-6.237,6.241-6.241,16.388-0.004,22.622    c3.023,3.022,7.042,4.694,11.315,4.694s8.289-1.672,11.31-4.694C273.526,325.009,273.526,314.854,267.292,308.621z     M261.626,325.587c-3.028,3.039-8.285,3.023-11.312,0c-3.117-3.117-3.117-8.194,0.004-11.311c1.512-1.508,3.523-2.344,5.66-2.344    c2.136,0,4.14,0.828,5.652,2.344C264.745,317.394,264.745,322.471,261.626,325.587z" fill="#FFFFFF"/>
	</g>
</g>
<g>
	<g>
		<path d="M323.833,252.072c-1.562-1.562-4.094-1.562-5.656,0L261.63,308.62c-1.562,1.561-1.562,4.093,0,5.655    c0.781,0.781,1.805,1.172,2.826,1.172c1.024,0,2.047-0.39,2.828-1.172l56.549-56.547    C325.394,256.166,325.394,253.634,323.833,252.072z" fill="#FFFFFF"/>
	</g>
</g>
<g>
	<g>
		<path d="M255.974,327.929c-2.211,0-4,1.789-4,4v50.228c0,2.211,1.789,3.999,4,3.999s4-1.788,4-3.999v-50.228    C259.974,329.718,258.184,327.929,255.974,327.929z" fill="#FFFFFF"/>
	</g>
</g>
<g>
	<g>
		<path d="M363.445,212.461c-1.562-1.562-4.094-1.562-5.656,0l-2.844,2.843c-1.561,1.563-1.561,4.094,0,5.656    c0.781,0.78,1.805,1.171,2.828,1.171s2.047-0.391,2.828-1.171l2.844-2.843C365.007,216.554,365.007,214.023,363.445,212.461z" fill="#FFFFFF"/>
	</g>
</g>
<g>
	<g>
		<path d="M156.979,418.934c-1.562-1.562-4.097-1.562-5.659,0l-2.824,2.82c-1.563,1.562-1.563,4.093-0.004,5.655    c0.781,0.781,1.809,1.172,2.832,1.172c1.023,0,2.046-0.39,2.827-1.172l2.824-2.82    C158.538,423.028,158.538,420.496,156.979,418.934z" fill="#FFFFFF"/>
	</g>
</g>
<g>
	<g>
		<path d="M331.972,188.307c-1.922-1.117-4.367-0.457-5.461,1.457l-2.014,3.484c-1.109,1.914-0.453,4.359,1.459,5.464    c0.625,0.367,1.312,0.539,2,0.539c1.375,0,2.719-0.714,3.461-1.996l2.016-3.484C334.542,191.857,333.886,189.412,331.972,188.307z    " fill="#FFFFFF"/>
	</g>
</g>
<g>
	<g>
		<path d="M185.975,441.165c-1.918-1.093-4.366-0.437-5.46,1.469l-2,3.468c-1.105,1.914-0.445,4.36,1.469,5.469    c0.629,0.359,1.317,0.531,1.992,0.531c1.383,0,2.73-0.719,3.468-2l2-3.469C188.549,444.72,187.889,442.274,185.975,441.165z" fill="#FFFFFF"/>
	</g>
</g>
<g>
	<g>
		<path d="M295.319,173.126c-2.138-0.578-4.326,0.688-4.904,2.82l-1.047,3.882c-0.57,2.132,0.687,4.327,2.828,4.905    c0.344,0.094,0.695,0.137,1.047,0.137c1.756,0,3.373-1.176,3.857-2.957l1.047-3.882    C298.717,175.899,297.46,173.704,295.319,173.126z" fill="#FFFFFF"/>
	</g>
</g>
<g>
	<g>
		<path d="M219.745,455.164c-2.129-0.571-4.324,0.695-4.902,2.82l-1.039,3.866c-0.574,2.132,0.691,4.328,2.824,4.898    c0.348,0.094,0.699,0.141,1.043,0.141c1.761,0,3.378-1.18,3.859-2.961l1.039-3.866    C223.143,457.93,221.877,455.734,219.745,455.164z" fill="#FFFFFF"/>
	</g>
</g>
<g>
	<g>
		<path d="M255.99,167.943c-0.004,0-0.004,0-0.008,0c-2.207,0-3.996,1.785-4,3.992l-0.008,4.015    c-0.004,2.21,1.781,4.003,3.992,4.007c0.004,0,0.004,0,0.008,0c2.207,0,3.996-1.785,4-3.992l0.008-4.015    C259.986,169.739,258.2,167.947,255.99,167.943z" fill="#FFFFFF"/>
	</g>
</g>
<g>
	<g>
		<path d="M255.982,459.929c-2.211,0-4,1.788-4,3.999v4c0,2.21,1.789,3.999,4,3.999s4-1.789,4-3.999v-4    C259.982,461.717,258.192,459.929,255.982,459.929z" fill="#FFFFFF"/>
	</g>
</g>
<g>
	<g>
		<path d="M222.577,179.832l-1.031-3.867c-0.566-2.137-2.757-3.41-4.894-2.832c-2.133,0.567-3.402,2.758-2.832,4.894l1.031,3.867    c0.476,1.788,2.093,2.968,3.859,2.968c0.343,0,0.687-0.043,1.035-0.136C221.878,184.159,223.147,181.968,222.577,179.832z" fill="#FFFFFF"/>
	</g>
</g>
<g>
	<g>
		<path d="M298.148,461.85l-1.031-3.858c-0.57-2.133-2.779-3.367-4.896-2.836c-2.133,0.57-3.398,2.765-2.836,4.898l1.031,3.858    c0.484,1.789,2.093,2.969,3.859,2.969c0.341,0,0.693-0.047,1.037-0.133C297.445,466.178,298.71,463.983,298.148,461.85z" fill="#FFFFFF"/>
	</g>
</g>
<g>
	<g>
		<path d="M187.463,193.288l-1.992-3.492c-1.09-1.922-3.542-2.597-5.452-1.492c-1.922,1.093-2.59,3.534-1.492,5.452l1.992,3.492    c0.735,1.297,2.086,2.019,3.476,2.019c0.672,0,1.351-0.168,1.976-0.527C187.893,197.647,188.561,195.206,187.463,193.288z" fill="#FFFFFF"/>
	</g>
</g>
<g>
	<g>
		<path d="M333.44,446.094l-2-3.46c-1.109-1.914-3.563-2.586-5.461-1.461c-1.912,1.102-2.568,3.547-1.459,5.46l1.998,3.461    c0.735,1.281,2.078,2,3.469,2c0.672,0,1.36-0.172,1.992-0.539C333.893,450.453,334.549,448.008,333.44,446.094z" fill="#FFFFFF"/>
	</g>
</g>
<g>
	<g>
		<path d="M157.006,215.308l-2.828-2.835c-1.558-1.566-4.088-1.566-5.655-0.008c-1.567,1.558-1.567,4.094-0.008,5.656l2.828,2.835    c0.781,0.784,1.804,1.175,2.831,1.175c1.024,0,2.043-0.391,2.824-1.167C158.565,219.405,158.565,216.87,157.006,215.308z" fill="#FFFFFF"/>
	</g>
</g>
<g>
	<g>
		<path d="M363.468,421.746l-2.828-2.828c-1.562-1.562-4.094-1.562-5.656,0c-1.561,1.562-1.561,4.093,0,5.655l2.828,2.828    c0.781,0.781,1.805,1.172,2.828,1.172s2.047-0.39,2.828-1.172C365.03,425.839,365.03,423.308,363.468,421.746z" fill="#FFFFFF"/>
	</g>
</g>
<g>
	<g>
		<path d="M133.31,244.495l-3.453-2.015c-1.906-1.105-4.355-0.469-5.468,1.437c-1.112,1.906-0.472,4.355,1.438,5.468l3.453,2.015    c0.633,0.371,1.328,0.547,2.011,0.547c1.375,0,2.715-0.71,3.457-1.984C135.861,248.057,135.22,245.608,133.31,244.495z" fill="#FFFFFF"/>
	</g>
</g>
<g>
	<g>
		<path d="M386.16,390.461l-3.459-2c-1.914-1.117-4.36-0.453-5.469,1.461c-1.101,1.914-0.445,4.359,1.469,5.46l3.461,2    c0.633,0.367,1.32,0.539,1.992,0.539c1.388,0,2.732-0.719,3.467-2C388.73,394.008,388.074,391.563,386.16,390.461z" fill="#FFFFFF"/>
	</g>
</g>
<g>
	<g>
		<path d="M117.977,278.811l-3.859-1.062c-2.136-0.578-4.331,0.664-4.917,2.796c-0.586,2.133,0.664,4.336,2.793,4.922l3.858,1.062    c0.355,0.094,0.714,0.141,1.066,0.141c1.754,0,3.363-1.164,3.852-2.938C121.356,281.599,120.106,279.397,117.977,278.811z" fill="#FFFFFF"/>
	</g>
</g>
<g>
	<g>
		<path d="M399.978,354.365l-3.842-1.039c-2.148-0.578-4.336,0.672-4.906,2.819c-0.579,2.132,0.687,4.328,2.812,4.898l3.859,1.039    c0.344,0.094,0.695,0.141,1.047,0.141c1.756,0,3.373-1.172,3.858-2.961C403.376,357.13,402.119,354.934,399.978,354.365z" fill="#FFFFFF"/>
	</g>
</g>
<g>
	<g>
		<path d="M112.032,315.932l-4-0.023c-0.007,0-0.015,0-0.023,0c-2.199,0-3.988,1.774-4,3.976c-0.012,2.211,1.766,4.007,3.976,4.023    l4,0.023c0.007,0,0.015,0,0.023,0c2.199,0,3.988-1.774,4-3.977C116.019,317.744,114.242,315.948,112.032,315.932z" fill="#FFFFFF"/>
	</g>
</g>
<g>
	<g>
		<path d="M403.985,315.916c-0.008,0-0.008,0-0.008,0l-3.984,0.008c-2.209,0.008-3.998,1.797-3.99,4.007    c0.008,2.203,1.789,3.992,3.998,3.992c0.008,0,0.008,0,0.008,0l3.984-0.008c2.211-0.008,4-1.797,3.992-4.008    C407.977,317.705,406.196,315.916,403.985,315.916z" fill="#FFFFFF"/>
	</g>
</g>
<g>
	<g>
		<path d="M120.777,356.176c-0.563-2.14-2.742-3.437-4.887-2.851l-3.854,1.016c-2.137,0.562-3.41,2.749-2.848,4.882    c0.472,1.796,2.093,2.984,3.863,2.984c0.34,0,0.68-0.039,1.023-0.132l3.855-1.016    C120.066,360.496,121.339,358.309,120.777,356.176z" fill="#FFFFFF"/>
	</g>
</g>
<g>
	<g>
		<path d="M402.806,280.592c-0.571-2.14-2.766-3.421-4.889-2.843l-3.859,1.023c-2.133,0.571-3.406,2.757-2.836,4.89    c0.476,1.797,2.094,2.977,3.867,2.977c0.336,0,0.688-0.039,1.031-0.133l3.842-1.023    C402.103,284.912,403.368,282.725,402.806,280.592z" fill="#FFFFFF"/>
	</g>
</g>
<g>
	<g>
		<path d="M134.772,389.938c-1.102-1.922-3.547-2.586-5.457-1.5l-3.468,1.977c-1.918,1.094-2.589,3.539-1.496,5.452    c0.738,1.296,2.089,2.023,3.48,2.023c0.672,0,1.351-0.172,1.977-0.523l3.468-1.977    C135.194,394.297,135.866,391.852,134.772,389.938z" fill="#FFFFFF"/>
	</g>
</g>
<g>
	<g>
		<path d="M387.62,243.929c-1.094-1.914-3.545-2.581-5.451-1.48l-3.469,1.984c-1.915,1.098-2.579,3.543-1.477,5.457    c0.743,1.289,2.086,2.011,3.477,2.011c0.672,0,1.36-0.172,1.985-0.531l3.451-1.984    C388.058,248.288,388.722,245.843,387.62,243.929z" fill="#FFFFFF"/>
	</g>
</g>
<g>
</g>
<g>
</g>
<g>
</g>
<g>
</g>
<g>
</g>
<g>
</g>
<g>
</g>
<g>
</g>
<g>
</g>
<g>
</g>
<g>
</g>
<g>
</g>
<g>
</g>
<g>
</g>
<g>
</g>
</svg>
