<?xml version="1.0" encoding="iso-8859-1"?>
<!-- Generator: Adobe Illustrator 19.0.0, SVG Export Plug-In . SVG Version: 6.00 Build 0)  -->
<svg xmlns="http://www.w3.org/2000/svg" xmlns:xlink="http://www.w3.org/1999/xlink" version="1.1" id="Capa_1" x="0px" y="0px" viewBox="0 0 512 512" style="enable-background:new 0 0 512 512;" xml:space="preserve" width="512px" height="512px">
<g>
	<g>
		<path d="M166.422,304.813c-1.735-1.328-4.266-1-5.602,0.766l-128,168c-1.344,1.75-1,4.265,0.758,5.609    C34.297,479.734,35.148,480,36,480c1.203,0,2.398-0.547,3.18-1.578l128-168C168.524,308.672,168.18,306.157,166.422,304.813z" fill="#FFFFFF"/>
	</g>
</g>
<g>
	<g>
		<path d="M190.422,304.813c-1.735-1.328-4.274-1-5.602,0.766l-128,168c-1.344,1.75-1,4.265,0.758,5.609    C58.297,479.734,59.148,480,60,480c1.203,0,2.398-0.547,3.18-1.578l128-168C192.524,308.672,192.18,306.157,190.422,304.813z" fill="#FFFFFF"/>
	</g>
</g>
<g>
	<g>
		<path d="M479.18,473.579l-128-168c-1.336-1.766-3.868-2.094-5.602-0.766c-1.758,1.343-2.102,3.859-0.758,5.609l128,168    c0.782,1.031,1.977,1.578,3.18,1.578c0.852,0,1.703-0.266,2.422-0.812C480.18,477.845,480.524,475.329,479.18,473.579z" fill="#FFFFFF"/>
	</g>
</g>
<g>
	<g>
		<path d="M455.18,473.579l-128-168c-1.336-1.766-3.868-2.094-5.602-0.766c-1.758,1.343-2.102,3.859-0.758,5.609l128,168    c0.782,1.031,1.977,1.578,3.18,1.578c0.852,0,1.703-0.266,2.422-0.812C456.18,477.845,456.524,475.329,455.18,473.579z" fill="#FFFFFF"/>
	</g>
</g>
<g>
	<g>
		<path d="M348,288H164c-2.211,0-4,1.789-4,4s1.789,4,4,4h184c2.211,0,4-1.789,4-4S350.211,288,348,288z" fill="#FFFFFF"/>
	</g>
</g>
<g>
	<g>
		<path d="M172,172c-2.211,0-4,1.789-4,4v116c0,2.211,1.789,4,4,4s4-1.789,4-4V176C176,173.789,174.211,172,172,172z" fill="#FFFFFF"/>
	</g>
</g>
<g>
	<g>
		<path d="M340,172c-2.211,0-4,1.789-4,4v116c0,2.211,1.789,4,4,4s4-1.789,4-4V176C344,173.789,342.211,172,340,172z" fill="#FFFFFF"/>
	</g>
</g>
<g>
	<g>
		<path d="M256,88c-48.523,0-88,39.477-88,88c0,2.211,1.789,4,4,4s4-1.789,4-4c0-44.113,35.891-80,80-80s80,35.887,80,80    c0,2.211,1.789,4,4,4s4-1.789,4-4C344,127.477,304.523,88,256,88z" fill="#FFFFFF"/>
	</g>
</g>
<g>
	<g>
		<path d="M310.055,232.57C272.469,210.016,272,124.855,272,124c0-2.211-1.789-4-4-4s-4,1.793-4,4    c0,3.688,0.477,90.551,41.945,115.43c0.641,0.386,1.352,0.57,2.055,0.57c1.352,0,2.68-0.691,3.43-1.942    C312.571,236.164,311.953,233.707,310.055,232.57z" fill="#FFFFFF"/>
	</g>
</g>
<g>
	<g>
		<path d="M308.781,232.078c-2.062-0.449-4.265,0.965-4.703,3.137l-8,40.004c-0.437,2.164,0.969,4.265,3.141,4.703    c0.258,0.055,0.523,0.078,0.789,0.078c1.867,0,3.531-1.312,3.914-3.219l8-39.996C312.359,234.617,310.953,232.512,308.781,232.078    z" fill="#FFFFFF"/>
	</g>
</g>
<g>
	<g>
		<path d="M324,232h-16c-2.211,0-4,1.789-4,4s1.789,4,4,4h16c2.211,0,4-1.789,4-4S326.211,232,324,232z" fill="#FFFFFF"/>
	</g>
</g>
<g>
	<g>
		<path d="M244,120c-2.211,0-4,1.789-4,4c0,0.855-0.438,85.996-38.055,108.571c-1.898,1.136-2.516,3.593-1.375,5.488    c0.75,1.25,2.078,1.941,3.43,1.941c0.703,0,1.414-0.184,2.055-0.57C247.523,214.551,248,127.688,248,124    C248,121.789,246.211,120,244,120z" fill="#FFFFFF"/>
	</g>
</g>
<g>
	<g>
		<path d="M215.922,275.219l-8-40.004c-0.437-2.172-2.641-3.59-4.703-3.137c-2.172,0.434-3.579,2.539-3.141,4.707l8,39.996    c0.383,1.907,2.047,3.219,3.914,3.219c0.266,0,0.531-0.023,0.789-0.078C214.953,279.485,216.36,277.383,215.922,275.219z" fill="#FFFFFF"/>
	</g>
</g>
<g>
	<g>
		<path d="M204,232h-16c-2.211,0-4,1.789-4,4s1.789,4,4,4h16c2.211,0,4-1.789,4-4S206.211,232,204,232z" fill="#FFFFFF"/>
	</g>
</g>
<g>
	<g>
		<path d="M12,352c-2.211,0-4,1.789-4,4v120c0,2.211,1.789,4,4,4s4-1.789,4-4V356C16,353.789,14.211,352,12,352z" fill="#FFFFFF"/>
	</g>
</g>
<g>
	<g>
		<path d="M12,336c-6.617,0-12,5.383-12,12s5.383,12,12,12s12-5.383,12-12S18.617,336,12,336z M12,352c-2.203,0-4-1.797-4-4    s1.797-4,4-4s4,1.797,4,4S14.203,352,12,352z" fill="#FFFFFF"/>
	</g>
</g>
<g>
	<g>
		<path d="M68,303.992c-2.211,0-4,1.789-4,4v104c0,2.211,1.789,4,4,4s4-1.789,4-4v-104C72,305.781,70.211,303.992,68,303.992z" fill="#FFFFFF"/>
	</g>
</g>
<g>
	<g>
		<path d="M68,287.992c-6.617,0-12,5.383-12,12s5.383,12,12,12s12-5.383,12-12S74.617,287.992,68,287.992z M68,303.992    c-2.203,0-4-1.789-4-4s1.797-4,4-4s4,1.789,4,4S70.203,303.992,68,303.992z" fill="#FFFFFF"/>
	</g>
</g>
<g>
	<g>
		<path d="M124,255.984c-2.211,0-4,1.789-4,4v80c0,2.211,1.789,4,4,4s4-1.789,4-4v-80C128,257.773,126.211,255.984,124,255.984z" fill="#FFFFFF"/>
	</g>
</g>
<g>
	<g>
		<path d="M124,239.984c-6.617,0-12,5.383-12,12s5.383,12,12,12s12-5.383,12-12S130.617,239.984,124,239.984z M124,255.984    c-2.203,0-4-1.793-4-4c0-2.207,1.797-4,4-4s4,1.793,4,4C128,254.191,126.203,255.984,124,255.984z" fill="#FFFFFF"/>
	</g>
</g>
<g>
	<g>
		<path d="M60.36,320.017c-2-0.219-4.141,1.422-4.344,3.625c-3.875,42.593-13.032,51.562-18.141,53.109    c-7,2.109-14.68-7.164-14.758-7.258c-1.383-1.711-3.922-1.977-5.617-0.602c-1.719,1.375-2,3.89-0.625,5.609    c0.391,0.484,8.594,10.57,18.852,10.57c1.445,0,2.921-0.195,4.43-0.647c12.711-3.828,20.5-23.468,23.828-60.062    C64.188,322.158,62.563,320.22,60.36,320.017z" fill="#FFFFFF"/>
	</g>
</g>
<g>
	<g>
		<path d="M116.36,272.017c-2-0.172-4.141,1.422-4.344,3.625c-3.875,42.593-13.032,51.562-18.141,53.109    c-7.031,2.117-14.68-7.164-14.758-7.258c-1.39-1.711-3.914-1.977-5.617-0.602c-1.719,1.375-2,3.89-0.625,5.609    c0.391,0.484,8.594,10.57,18.852,10.57c1.445,0,2.921-0.195,4.43-0.647c12.711-3.828,20.5-23.468,23.828-60.062    C120.188,274.158,118.563,272.22,116.36,272.017z" fill="#FFFFFF"/>
	</g>
</g>
<g>
	<g>
		<path d="M500,352c-2.211,0-4,1.789-4,4v120c0,2.211,1.789,4,4,4s4-1.789,4-4V356C504,353.789,502.211,352,500,352z" fill="#FFFFFF"/>
	</g>
</g>
<g>
	<g>
		<path d="M500,336c-6.617,0-12,5.383-12,12s5.383,12,12,12s12-5.383,12-12S506.617,336,500,336z M500,352c-2.203,0-4-1.797-4-4    s1.797-4,4-4s4,1.797,4,4S502.203,352,500,352z" fill="#FFFFFF"/>
	</g>
</g>
<g>
	<g>
		<path d="M444,303.992c-2.211,0-4,1.789-4,4v104c0,2.211,1.789,4,4,4s4-1.789,4-4v-104C448,305.781,446.211,303.992,444,303.992z" fill="#FFFFFF"/>
	</g>
</g>
<g>
	<g>
		<path d="M444,287.992c-6.617,0-12,5.383-12,12s5.383,12,12,12s12-5.383,12-12S450.617,287.992,444,287.992z M444,303.992    c-2.203,0-4-1.789-4-4s1.797-4,4-4s4,1.789,4,4S446.203,303.992,444,303.992z" fill="#FFFFFF"/>
	</g>
</g>
<g>
	<g>
		<path d="M388,255.984c-2.211,0-4,1.789-4,4v80c0,2.211,1.789,4,4,4s4-1.789,4-4v-80C392,257.773,390.211,255.984,388,255.984z" fill="#FFFFFF"/>
	</g>
</g>
<g>
	<g>
		<path d="M388,239.984c-6.617,0-12,5.383-12,12s5.383,12,12,12s12-5.383,12-12S394.617,239.984,388,239.984z M388,255.984    c-2.203,0-4-1.793-4-4c0-2.207,1.797-4,4-4s4,1.793,4,4C392,254.191,390.203,255.984,388,255.984z" fill="#FFFFFF"/>
	</g>
</g>
<g>
	<g>
		<path d="M494.5,368.875c-1.727-1.375-4.234-1.102-5.625,0.625c-0.071,0.094-7.727,9.391-14.727,7.258    c-5.125-1.539-14.289-10.492-18.164-53.117c-0.203-2.203-2.289-3.859-4.344-3.625c-2.203,0.203-3.828,2.141-3.625,4.344    c3.328,36.593,11.117,56.234,23.828,60.062c1.508,0.453,2.985,0.648,4.43,0.648c10.258,0,18.461-10.086,18.852-10.57    C496.5,372.773,496.227,370.258,494.5,368.875z" fill="#FFFFFF"/>
	</g>
</g>
<g>
	<g>
		<path d="M438.5,320.875c-1.719-1.359-4.234-1.109-5.625,0.625c-0.071,0.094-7.758,9.36-14.727,7.258    c-5.125-1.539-14.289-10.492-18.164-53.117c-0.203-2.203-2.352-3.813-4.344-3.625c-2.203,0.203-3.828,2.141-3.625,4.344    c3.328,36.593,11.117,56.234,23.828,60.062c1.508,0.453,2.985,0.648,4.43,0.648c10.258,0,18.461-10.086,18.852-10.57    C440.5,324.773,440.227,322.258,438.5,320.875z" fill="#FFFFFF"/>
	</g>
</g>
<g>
	<g>
		<path d="M275.794,46.957c-0.476-1.422-1.711-2.457-3.195-2.684l-8.93-1.367l-4.047-8.609c-0.656-1.402-2.07-2.297-3.617-2.297    c-1.555,0-2.961,0.899-3.625,2.305l-4.031,8.602l-8.945,1.367c-1.484,0.227-2.718,1.262-3.195,2.684    c-0.468,1.421-0.109,2.992,0.938,4.066l6.586,6.742l-1.562,9.59c-0.25,1.512,0.391,3.031,1.641,3.914    c0.688,0.484,1.493,0.73,2.305,0.73c0.664,0,1.328-0.164,1.935-0.5l7.953-4.398l7.945,4.398c0.61,0.336,1.274,0.5,1.938,0.5    c0.062,0,0.117,0.004,0.156,0c2.211,0,4-1.789,4-4c0-0.617-0.133-1.199-0.383-1.719l-1.391-8.516l6.586-6.742    C275.903,49.949,276.263,48.379,275.794,46.957z M261.142,53.618c-0.891,0.91-1.297,2.187-1.086,3.441l0.562,3.449l-2.672-1.477    c-1.203-0.664-2.672-0.664-3.875,0l-2.68,1.48l0.562-3.453c0.211-1.253-0.195-2.531-1.086-3.441l-2.555-2.613l3.362-0.511    c1.32-0.199,2.453-1.047,3.023-2.258l1.32-2.816l1.328,2.824c0.563,1.203,1.696,2.051,3.016,2.25l3.336,0.512L261.142,53.618z" fill="#FFFFFF"/>
	</g>
</g>
<g>
	<g>
		<path d="M327.795,62.959c-0.476-1.422-1.711-2.457-3.195-2.684l-8.93-1.367l-4.031-8.602c-0.664-1.407-2.07-2.305-3.625-2.305    c-1.547,0-2.961,0.895-3.617,2.297l-4.047,8.609l-8.953,1.367c-1.484,0.227-2.718,1.262-3.195,2.684    c-0.468,1.425-0.109,2.992,0.938,4.066l6.594,6.742l-1.555,9.594c-0.25,1.512,0.391,3.031,1.641,3.91    c0.688,0.484,1.493,0.73,2.305,0.73c0.664,0,1.328-0.164,1.935-0.498l7.953-4.398l7.938,4.398c0.602,0.336,1.274,0.5,1.938,0.5    c0.062,0.008,0.125,0.004,0.156,0c2.211,0,4-1.789,4-4c0-0.617-0.133-1.199-0.383-1.719l-1.391-8.516l6.586-6.742    C327.904,65.951,328.264,64.381,327.795,62.959z M313.142,69.619c-0.891,0.91-1.297,2.187-1.086,3.441l0.562,3.445l-2.664-1.473    c-1.203-0.664-2.672-0.664-3.875,0l-2.688,1.484l0.562-3.461c0.203-1.254-0.195-2.528-1.086-3.438l-2.555-2.613l3.354-0.51    c1.321-0.199,2.454-1.043,3.016-2.25l1.328-2.824l1.32,2.816c0.57,1.211,1.703,2.059,3.023,2.258l3.344,0.512L313.142,69.619z" fill="#FFFFFF"/>
	</g>
</g>
<g>
	<g>
		<path d="M223.795,62.959c-0.476-1.422-1.711-2.457-3.195-2.684l-8.93-1.367l-4.031-8.602c-0.664-1.407-2.07-2.305-3.625-2.305    c-1.547,0-2.961,0.895-3.617,2.297l-4.047,8.609l-8.953,1.367c-1.484,0.227-2.718,1.262-3.195,2.684    c-0.468,1.425-0.109,2.992,0.938,4.066l6.594,6.742l-1.555,9.594c-0.25,1.512,0.391,3.031,1.641,3.91    c0.688,0.484,1.493,0.73,2.305,0.73c0.664,0,1.328-0.164,1.935-0.498l7.953-4.398l7.938,4.398c0.602,0.336,1.274,0.5,1.938,0.5    c0.062,0.008,0.125,0.004,0.156,0c2.211,0,4-1.789,4-4c0-0.617-0.133-1.199-0.383-1.719l-1.391-8.516l6.586-6.742    C223.904,65.951,224.264,64.381,223.795,62.959z M209.142,69.619c-0.891,0.91-1.297,2.187-1.086,3.441l0.562,3.445l-2.664-1.473    c-1.203-0.664-2.672-0.664-3.875,0l-2.688,1.484l0.562-3.461c0.203-1.254-0.195-2.528-1.086-3.438l-2.555-2.613l3.354-0.51    c1.321-0.199,2.454-1.043,3.016-2.25l1.328-2.824l1.32,2.816c0.57,1.211,1.703,2.059,3.023,2.258l3.344,0.512L209.142,69.619z" fill="#FFFFFF"/>
	</g>
</g>
<g>
</g>
<g>
</g>
<g>
</g>
<g>
</g>
<g>
</g>
<g>
</g>
<g>
</g>
<g>
</g>
<g>
</g>
<g>
</g>
<g>
</g>
<g>
</g>
<g>
</g>
<g>
</g>
<g>
</g>
</svg>
